<svg fill="none" height="18" viewBox="0 0 18 18" width="18" xmlns="http://www.w3.org/2000/svg">
    <path
        d="M8.99999 0.666748C4.39999 0.666748 0.666656 4.40008 0.666656 9.00008C0.666656 13.6001 4.39999 17.3334 8.99999 17.3334C13.6 17.3334 17.3333 13.6001 17.3333 9.00008C17.3333 4.40008 13.6 0.666748 8.99999 0.666748ZM4.89166 14.2334C5.24999 13.4834 7.43332 12.7501 8.99999 12.7501C10.5667 12.7501 12.7583 13.4834 13.1083 14.2334C11.975 15.1334 10.55 15.6667 8.99999 15.6667C7.44999 15.6667 6.02499 15.1334 4.89166 14.2334ZM14.3 13.0251C13.1083 11.5751 10.2167 11.0834 8.99999 11.0834C7.78332 11.0834 4.89166 11.5751 3.69999 13.0251C2.84999 11.9084 2.33332 10.5167 2.33332 9.00008C2.33332 5.32508 5.32499 2.33341 8.99999 2.33341C12.675 2.33341 15.6667 5.32508 15.6667 9.00008C15.6667 10.5167 15.15 11.9084 14.3 13.0251ZM8.99999 4.00008C7.38332 4.00008 6.08332 5.30008 6.08332 6.91675C6.08332 8.53342 7.38332 9.83342 8.99999 9.83342C10.6167 9.83342 11.9167 8.53342 11.9167 6.91675C11.9167 5.30008 10.6167 4.00008 8.99999 4.00008ZM8.99999 8.16675C8.30832 8.16675 7.74999 7.60842 7.74999 6.91675C7.74999 6.22508 8.30832 5.66675 8.99999 5.66675C9.69166 5.66675 10.25 6.22508 10.25 6.91675C10.25 7.60842 9.69166 8.16675 8.99999 8.16675Z"
        fill="#667085" />
</svg>
