<svg fill="none" height="40" viewBox="0 0 40 40" width="40" xmlns="http://www.w3.org/2000/svg">
    <rect fill="#027A48" height="40" rx="20" width="40" />
    <path
        d="M25.7129 8.31909C25.0752 8.31909 24.5533 8.8409 24.5533 9.47868V10.6383H15.2767V9.47868C15.2767 8.8409 14.7549 8.31909 14.1171 8.31909C13.4793 8.31909 12.9575 8.8409 12.9575 9.47868V10.6383H11.7979C10.5108 10.6383 9.49036 11.6819 9.49036 12.9574L9.47876 29.1916C9.47876 30.4671 10.5108 31.5108 11.7979 31.5108H28.0321C29.3076 31.5108 30.3513 30.4671 30.3513 29.1916V12.9574C30.3513 11.6819 29.3076 10.6383 28.0321 10.6383H26.8725V9.47868C26.8725 8.8409 26.3507 8.31909 25.7129 8.31909ZM28.0321 29.1916H11.7979V17.5958H28.0321V29.1916ZM18.7554 21.0745C18.7554 20.4367 19.2772 19.9149 19.915 19.9149C20.5528 19.9149 21.0746 20.4367 21.0746 21.0745C21.0746 21.7123 20.5528 22.2341 19.915 22.2341C19.2772 22.2341 18.7554 21.7123 18.7554 21.0745ZM14.1171 21.0745C14.1171 20.4367 14.6389 19.9149 15.2767 19.9149C15.9144 19.9149 16.4363 20.4367 16.4363 21.0745C16.4363 21.7123 15.9144 22.2341 15.2767 22.2341C14.6389 22.2341 14.1171 21.7123 14.1171 21.0745ZM23.3938 21.0745C23.3938 20.4367 23.9156 19.9149 24.5533 19.9149C25.1911 19.9149 25.7129 20.4367 25.7129 21.0745C25.7129 21.7123 25.1911 22.2341 24.5533 22.2341C23.9156 22.2341 23.3938 21.7123 23.3938 21.0745ZM18.7554 25.7128C18.7554 25.0751 19.2772 24.5533 19.915 24.5533C20.5528 24.5533 21.0746 25.0751 21.0746 25.7128C21.0746 26.3506 20.5528 26.8724 19.915 26.8724C19.2772 26.8724 18.7554 26.3506 18.7554 25.7128ZM14.1171 25.7128C14.1171 25.0751 14.6389 24.5533 15.2767 24.5533C15.9144 24.5533 16.4363 25.0751 16.4363 25.7128C16.4363 26.3506 15.9144 26.8724 15.2767 26.8724C14.6389 26.8724 14.1171 26.3506 14.1171 25.7128ZM23.3938 25.7128C23.3938 25.0751 23.9156 24.5533 24.5533 24.5533C25.1911 24.5533 25.7129 25.0751 25.7129 25.7128C25.7129 26.3506 25.1911 26.8724 24.5533 26.8724C23.9156 26.8724 23.3938 26.3506 23.3938 25.7128Z"
        fill="#FCFCFD" />
</svg>
