<svg fill="none" height="24" viewBox="0 0 24 24" width="24" xmlns="http://www.w3.org/2000/svg">
    <g opacity="0.5">
        <path clip-rule="evenodd"
            d="M21.524 9.75291C21.2143 7.846 20.2499 6.10657 18.7966 4.83364C17.3434 3.56071 15.4921 2.83381 13.561 2.77791C13.4671 2.77416 13.3735 2.78897 13.2853 2.82149C13.1972 2.85401 13.1164 2.90361 13.0474 2.96743C12.9785 3.03125 12.9228 3.10804 12.8836 3.19341C12.8444 3.27878 12.8225 3.37104 12.819 3.46491V3.52891L13.268 10.2379C13.298 10.6899 13.685 11.0329 14.138 11.0069L20.865 10.5579C20.9589 10.551 21.0504 10.5255 21.1344 10.4831C21.2184 10.4406 21.2932 10.3819 21.3544 10.3105C21.4157 10.239 21.4622 10.1561 21.4913 10.0666C21.5204 9.97711 21.5315 9.88273 21.524 9.78891V9.75291V9.75291Z"
            fill-rule="evenodd" stroke="#757C86" stroke-linecap="round" stroke-linejoin="round"
            stroke-width="1.5" />
        <path
            d="M8.902 6.76884C9.10943 6.72092 9.32708 6.74684 9.51745 6.84212C9.70783 6.9374 9.85903 7.09608 9.945 7.29084C9.99138 7.38534 10.0192 7.48786 10.027 7.59284C10.119 8.89284 10.311 11.7388 10.421 13.2768C10.4303 13.414 10.4665 13.548 10.5278 13.6711C10.589 13.7942 10.674 13.904 10.7778 13.9941C10.8816 14.0843 11.0022 14.153 11.1327 14.1964C11.2631 14.2398 11.4009 14.2569 11.538 14.2468L17.185 13.8988C17.3098 13.8913 17.4348 13.9095 17.5523 13.9521C17.6698 13.9948 17.7773 14.0611 17.8682 14.1469C17.9591 14.2328 18.0315 14.3363 18.0808 14.4512C18.1301 14.5661 18.1554 14.6898 18.155 14.8148C18.0432 16.4749 17.3966 18.0541 16.312 19.3159C15.2273 20.5776 13.7631 21.454 12.1386 21.8137C10.5141 22.1734 8.81675 21.9971 7.30086 21.3111C5.78497 20.6252 4.53213 19.4666 3.73 18.0088C3.2385 17.1471 2.9272 16.1945 2.815 15.2088C2.76698 14.906 2.74856 14.5992 2.76 14.2928C2.76467 12.5258 3.37641 10.814 4.49276 9.44425C5.6091 8.07449 7.16224 7.12995 8.892 6.76884"
            stroke="#757C86" stroke-linecap="round" stroke-linejoin="round" stroke-width="1.5" />
    </g>
</svg>
