<svg width="309" height="461" viewBox="0 0 309 461" fill="none" xmlns="http://www.w3.org/2000/svg">
    <path fill-rule="evenodd" clip-rule="evenodd" d="M108.567 173.269C112.187 169.434 113.681 162.068 113.1 157.955C112.684 155.501 111.452 153.259 109.603 151.592C107.754 149.926 105.397 148.932 102.913 148.772C97.0854 148.445 90.4384 148.868 85.5465 152.019C82.0044 154.489 78.7601 157.361 75.8787 160.577C76.46 158.258 76.5796 155.848 76.2307 153.483C75.674 149.358 71.6546 148.718 69.3129 149.705C68.5949 149.93 67.9475 150.338 67.434 150.888C66.9205 151.438 66.5584 152.112 66.383 152.844C66.1788 153.694 66.1021 154.569 66.1553 155.44C65.5199 154.434 64.5299 153.704 63.3813 153.393C62.5989 153.259 61.7966 153.293 61.0288 153.495C60.2609 153.697 59.5454 154.062 58.9305 154.564C57.656 155.42 56.7429 156.717 56.3669 158.206C55.926 159.97 57.2833 162.95 57.2833 162.95C56.0468 163.094 54.9056 163.685 54.0741 164.612C52.6022 166.043 51.6676 167.937 51.4273 169.975C51.2361 171.577 51.5314 173.199 52.2748 174.631C53.1258 175.759 54.0766 176.809 55.1158 177.767C54.415 178.401 53.7648 179.089 53.1711 179.825C52.0201 181.1 51.1433 182.597 50.5951 184.225C50.0345 186.313 50.0216 188.51 50.5578 190.604C51.0103 192.136 52.0072 193.45 53.3609 194.299C54.7146 195.147 56.3317 195.472 57.9079 195.211C56.9309 196.611 56.1465 198.136 55.5759 199.745C55.3261 200.627 55.2752 201.554 55.4267 202.458C55.5782 203.362 55.9284 204.221 56.4521 204.974C58.0364 206.707 59.7594 208.309 61.6041 209.763L65.2877 217.49L69.0709 216.151C69.0709 216.151 69.6448 219.75 71.9511 221.178C74.0119 222.333 76.4353 222.66 78.7283 222.091C80.2415 221.68 81.5826 219.305 81.5826 219.305C81.5826 219.305 83.4651 222.033 86.0908 222.404C88.7166 222.775 102.956 219.016 102.956 219.016L90.9272 185.307C90.9272 185.307 104.939 177.102 108.563 173.269H108.567Z" fill="#061428"/>
    <path fill-rule="evenodd" clip-rule="evenodd" d="M104.716 162.26C107.248 167.462 109.028 172.998 110.002 178.702C110.863 184.745 110.998 192.323 109.993 196.685C109.234 200.211 107.245 203.353 104.383 205.548C102.217 207.157 97.4375 209.265 92.956 207.929C88.4746 206.594 84.9774 204.342 83.0261 201.538C83.5745 199.72 83.8486 197.83 83.8392 195.931C83.8162 194.192 83.5423 192.465 83.0261 190.803C80.4147 191.741 78.5025 190.069 77.8894 187.436C77.2762 184.804 78.5915 182.887 81.0173 183.212C83.4431 183.537 87.2349 180.904 86.5758 177.265C89.5819 177.287 92.5571 176.658 95.2977 175.423C97.8936 174.357 100.104 172.527 101.636 170.176C103.166 167.846 104.718 164.341 104.718 162.265L104.716 162.26Z" fill="#E88D95"/>
    <path fill-rule="evenodd" clip-rule="evenodd" d="M85.0358 152.353C84.9401 152.544 83.8382 153.23 83.5148 153.524C82.6998 154.332 81.9357 155.19 81.2268 156.093C79.2628 158.386 77.6624 160.967 76.4813 163.745C74.6199 168.214 73.0119 173.372 72.8541 178.258C72.7581 179.908 72.9086 181.564 73.3008 183.17C73.4391 183.736 73.6064 184.295 73.802 184.845C73.8642 185.028 74.3147 185.906 74.1378 185.906C73.4312 185.192 72.7783 184.427 72.1845 183.618C70.6903 181.426 69.0642 179.462 68.4444 176.807C67.8207 174.419 67.5016 171.962 67.4945 169.494C67.7496 163.536 70.312 157.91 74.6399 153.807C76.6592 151.803 79.6781 150.123 82.5669 150.123C83.9603 150.143 85.3059 150.634 86.3845 151.517L85.0358 152.355V152.353Z" fill="#AB8DE5"/>
    <path fill-rule="evenodd" clip-rule="evenodd" d="M135.294 414.199C137.788 416.239 141.355 418.248 143.52 419.788C145.296 421.166 147.272 422.265 149.379 423.048C151.06 423.549 151.342 425.318 149.879 425.8C148.417 426.282 145.958 425.999 143.306 425.949L134.334 425.783C131.708 425.733 128.102 425.856 126.406 424.928C124.71 424 124.709 421.935 124.709 420.279C124.709 418.623 126.69 414.417 126.69 414.417C126.69 414.417 132.805 412.159 135.299 414.199H135.294Z" fill="#061428"/>
    <path fill-rule="evenodd" clip-rule="evenodd" d="M64.8152 387.528C64.3723 390.015 64.2413 393.171 63.9342 396.92C63.7874 400.62 63.8612 404.325 64.1552 408.016C64.2508 410.425 62.6649 411.857 61.1162 409.305C58.9777 405.538 57.233 401.56 55.9097 397.436C54.7025 393.452 54.5763 388.643 53.988 386.587C53.3997 384.532 52.9147 382.246 53.789 382.067L60.5298 380.677C60.5298 380.677 65.2562 385.042 64.8152 387.529V387.528Z" fill="#061428"/>
    <path fill-rule="evenodd" clip-rule="evenodd" d="M133.246 259.243C133.755 262.913 135.085 271.199 135.95 278.756C136.815 286.313 136.494 296.559 136.907 301.066C137.319 305.573 137.365 318.351 137.481 322.11L137.781 331.861C137.829 333.428 137.756 355.336 137.239 361.483C136.721 367.629 136.248 379.922 136.024 388.008L135.632 402.199L135.3 414.202L126.691 414.42C126.691 414.42 123.505 406.002 121.686 399.331C119.867 392.66 119.615 388.977 118.48 382.521C117.344 376.065 115.372 368.709 114.701 365.291C114.031 361.872 111.627 352.676 111.627 352.676L120.109 327.732L113.221 284.622L122.883 260.23C122.883 260.23 132.735 255.578 133.242 259.248L133.246 259.243Z" fill="#8669BE"/>
    <path fill-rule="evenodd" clip-rule="evenodd" d="M98.5738 260.224C96.6607 262.102 94.8433 265.868 93.5041 268.539C92.1649 271.211 91.1816 276.556 90.9769 279.89C90.769 285.726 90.9016 291.568 91.3739 297.389C91.8847 302.529 93.9087 308.66 96.2523 313.836L101.609 325.646C96.8566 330.605 92.577 335.995 88.8256 341.748C83.2126 350.578 77.4178 356.02 72.4466 362.433L59.558 379.059L64.8917 388.005L67.4744 385.996C67.4744 385.996 73.8058 380.631 80.0875 376.174L102.896 359.991C109.44 355.347 118.287 346.217 122.87 341.486C127.453 336.755 128.236 332.37 128.397 327.945C128.558 323.52 127.737 307.245 127.381 301.672L125.979 279.699L125.364 270.056C125.364 270.056 129.18 265.523 130.567 263.36L133.161 259.314C133.157 258.48 133.078 257.647 132.925 256.827L131.909 251.031C131.666 249.65 129.769 247.621 129.769 247.621C129.769 247.621 100.47 258.343 98.5614 260.221L98.5738 260.224Z" fill="#AB8DE5"/>
    <path fill-rule="evenodd" clip-rule="evenodd" d="M142.358 168.068C141.963 169.174 141.499 170.253 140.969 171.301C138.674 175.393 135.065 178.59 130.726 180.376C128.091 181.474 124.581 182.218 121.979 180.529C117.891 177.874 118.696 172.284 120.114 168.316C120.705 166.95 121.523 165.694 122.532 164.599C122.875 164.199 123.297 163.923 123.667 163.556L129.358 164.011C129.262 164.065 129.049 164.033 128.932 164.088C128.614 164.283 128.329 164.526 128.087 164.81C126.889 165.904 125.511 167.444 125.251 169.114C125.204 169.452 125.196 169.795 125.225 170.135C125.256 170.578 125.399 171.006 125.64 171.378C126.469 172.485 128.441 171.728 129.305 171.125C130.008 170.637 130.666 170.087 131.271 169.483C131.988 168.665 132.545 167.72 132.912 166.696L142.358 168.065V168.068Z" fill="#EDC152"/>
    <path fill-rule="evenodd" clip-rule="evenodd" d="M119.834 178.197C118.308 175.306 119.034 171.34 120.113 168.316C120.705 166.95 121.523 165.694 122.532 164.599C122.875 164.199 123.297 163.923 123.667 163.556L129.358 164.011C129.262 164.065 129.049 164.033 128.932 164.088C128.614 164.283 128.329 164.526 128.087 164.81C126.889 165.904 125.511 167.444 125.251 169.114C125.204 169.452 125.196 169.795 125.225 170.135C125.256 170.578 125.399 171.006 125.639 171.378C126.469 172.485 128.441 171.728 129.305 171.125C130.008 170.637 130.666 170.087 131.271 169.483C131.988 168.665 132.545 167.72 132.912 166.696L140.25 167.759C140.259 168.339 140.126 168.913 139.865 169.432C139.603 169.95 139.219 170.397 138.747 170.735C138.318 171.028 137.85 171.258 137.355 171.418C136.807 171.563 136.35 171.49 135.937 171.963C135.258 172.739 135.426 173.804 135.037 174.692C134.757 175.262 134.268 175.701 133.673 175.92C133.022 176.139 132.324 176.177 131.653 176.029C131.15 175.939 130.438 175.587 129.932 175.81C128.522 176.438 128.523 178.548 127.23 179.357C126.912 179.53 126.555 179.62 126.193 179.62C125.831 179.62 125.474 179.53 125.155 179.357C123.974 178.833 122.727 177.704 121.417 177.529C121.117 177.479 120.808 177.515 120.527 177.633C120.246 177.752 120.005 177.948 119.831 178.199L119.834 178.197Z" fill="#D2416E"/>
    <path fill-rule="evenodd" clip-rule="evenodd" d="M125.577 206.003C129.111 205.237 132.703 204.77 136.316 204.606L147.824 203.697C150.48 203.486 153.582 203.722 153.563 201.543C153.544 199.364 150.719 187.009 149.112 182.385C147.505 177.762 147.315 171.148 145.934 170.211C144.552 169.273 145.485 169.063 144.253 169.07C143.108 169.104 141.989 168.728 141.096 168.009C140.262 167.32 139.486 168.009 138.346 168.009C137.206 168.009 133.998 169.957 130.57 168.009C127.143 166.062 127.306 164.9 127.134 164.249C126.961 163.599 126.113 164.577 124.323 164.134C122.534 163.692 122.518 160.84 123.644 159.367L126.566 155.541C127.692 154.068 131.141 153.183 133.227 153.165C135.313 153.147 137.818 153.123 140.351 153.102C142.884 153.081 145.517 153.747 146.419 154.661C147.541 155.797 148.454 157.362 149.392 158.312C151.409 160.891 153.222 163.624 154.815 166.486L159.856 177.369C161.353 180.601 165.154 185.978 167.448 193.759C169.743 201.539 172.355 204.643 171.898 208.848C171.442 213.053 170.176 213.451 165.079 216.152C159.982 218.852 152.224 224.617 143.52 227.58L129.589 232.32C129.589 232.32 122.468 206.847 125.577 206.003V206.003Z" fill="#E88D95"/>
    <path fill-rule="evenodd" clip-rule="evenodd" d="M17.1292 216.752C16.4372 216.459 15.8633 215.943 15.4991 215.286C15.135 214.628 15.0017 213.868 15.1205 213.126C15.1607 211.269 17.0231 209.312 19.8956 209.136C22.7681 208.96 29.3301 209.374 32.3748 209.213C35.4195 209.052 36.9404 209.418 38.4517 210.6C39.184 211.108 39.6985 211.873 39.8934 212.743C40.0883 213.613 39.9493 214.524 39.5039 215.297C39.189 215.923 38.6908 216.438 38.0756 216.774C37.4604 217.11 36.7574 217.251 36.0604 217.177C34.2027 217.214 19.0615 217.83 17.1369 216.752H17.1292Z" fill="#EDC152"/>
    <path fill-rule="evenodd" clip-rule="evenodd" d="M43.3559 217.07C42.5865 216.6 41.9803 215.905 41.6196 215.078C41.2589 214.252 41.1611 213.335 41.3395 212.451C41.7661 210.729 42.4099 209.753 44.9677 209.311C47.9259 208.746 50.9293 208.449 53.9411 208.426C57.51 208.426 61.9025 208.808 63.2761 209.311C64.0041 209.531 64.6201 210.022 64.9973 210.682C65.3745 211.343 65.4843 212.122 65.304 212.861C65.1425 213.825 64.6819 214.714 63.9873 215.402C63.2927 216.09 62.3994 216.542 61.4338 216.694C59.2691 216.953 44.8376 217.861 43.3549 217.07H43.3559Z" fill="#EDC152"/>
    <path fill-rule="evenodd" clip-rule="evenodd" d="M28.5782 209.443C26.8229 208.934 25.8865 206.361 26.8038 204.579C27.7211 202.797 29.7959 201.491 33.6795 201.275L41.5232 200.841C43.3053 200.746 47.583 200.859 49.2158 201.004C50.8486 201.148 53.0305 202.3 53.1262 204.286C53.1867 204.933 53.1129 205.587 52.9094 206.204C52.7059 206.822 52.377 207.391 51.9435 207.876C51.5099 208.361 50.9809 208.751 50.3895 209.022C49.7982 209.293 49.1573 209.439 48.507 209.451C44.9132 209.586 30.3325 209.951 28.5763 209.443L28.5782 209.443Z" fill="#EDC152"/>
    <path fill-rule="evenodd" clip-rule="evenodd" d="M15.1186 213.644V213.126C15.1587 211.269 17.0211 209.312 19.8937 209.136C22.7662 208.96 29.3281 209.374 32.3728 209.213C35.4175 209.052 36.9404 209.418 38.4517 210.6C39.0605 211.069 39.5247 211.701 39.7909 212.422C39.2183 213.071 38.5168 213.595 37.7312 213.958C36.9455 214.322 36.0928 214.518 35.2272 214.534C33.3763 214.46 32.4216 212.341 30.5879 212.463C29.3281 212.547 28.8757 213.729 27.9679 214.409C27.7094 214.578 27.4195 214.695 27.1155 214.75C26.8114 214.806 26.4992 214.8 26.1974 214.733C24.7214 214.578 24.0183 213.147 22.705 212.662C22.1874 212.504 21.6384 212.479 21.1085 212.589C20.8696 212.603 20.6342 212.653 20.4102 212.738C19.7178 213.207 19.0654 213.733 18.4598 214.309C18.0131 214.579 17.4925 214.7 16.9727 214.655C16.453 214.61 15.9609 214.401 15.5672 214.059C15.4061 213.932 15.2552 213.794 15.1157 213.644H15.1186Z" fill="#D2416E"/>
    <path fill-rule="evenodd" clip-rule="evenodd" d="M26.5522 205.25C26.6102 205.018 26.6946 204.793 26.8038 204.58C27.7201 202.798 29.7959 201.492 33.6795 201.276L41.5232 200.842C43.3052 200.746 47.5829 200.86 49.2158 201.005C49.958 201.056 50.6768 201.286 51.3111 201.675C51.9454 202.063 52.4765 202.599 52.8593 203.237C52.7529 203.23 52.6461 203.238 52.5417 203.259C50.4689 203.674 49.9705 206.543 47.5906 206.543C46.7388 206.499 45.924 206.181 45.2681 205.635C44.5535 205.125 43.8122 204.179 42.8193 204.302C41.1195 204.514 40.4098 207.11 38.533 206.932C37.5818 206.792 36.7055 206.335 36.046 205.635C35.627 205.248 35.0043 204.548 34.3749 204.548C34.0194 204.529 33.6629 204.544 33.3102 204.592C32.7573 204.702 32.3537 205.357 31.9778 205.707C31.3016 206.406 30.3907 206.829 29.4209 206.895C28.85 206.853 28.2959 206.684 27.7992 206.399C27.3026 206.115 26.8761 205.722 26.5512 205.251L26.5522 205.25Z" fill="#D2416E"/>
    <path fill-rule="evenodd" clip-rule="evenodd" d="M41.2439 213.52C41.2222 213.16 41.2544 212.799 41.3395 212.449C41.7661 210.727 42.4099 209.751 44.9677 209.31C47.926 208.744 50.9294 208.447 53.9411 208.424C57.51 208.424 61.9025 208.806 63.2761 209.31C64.0041 209.529 64.6201 210.02 64.9974 210.68C65.3746 211.341 65.4843 212.121 65.304 212.859C65.2881 212.938 65.2699 213.016 65.2495 213.094C64.2799 212.993 63.3454 212.675 62.5147 212.165C61.6675 211.54 60.6371 211.214 59.5848 211.238C57.246 211.519 56.1173 214.395 53.8531 214.643C52.8208 214.623 51.8343 214.213 51.0916 213.495C50.5176 212.879 49.8796 211.936 48.9403 211.869C47.2185 211.736 46.2619 213.46 44.8271 214.021C44.2358 214.197 43.6137 214.247 43.002 214.165C42.3902 214.084 41.8027 213.873 41.2783 213.548L41.2477 213.521L41.2439 213.52Z" fill="#D2416E"/>
    <path fill-rule="evenodd" clip-rule="evenodd" d="M10.1655 216.706C10.924 218.804 12.0441 220.753 13.4752 222.464C14.7971 224.063 17.925 225.812 19.534 225.812H31.0738C32.5 225.812 52.2366 225.812 57.2699 225.238C62.3033 224.664 64.8563 224.59 66.14 223.446C67.4237 222.303 71.5522 216.368 71.5522 216.368C66.5622 216.742 61.5557 216.846 56.5544 216.68C46.2686 216.497 38.3589 216.896 30.452 216.991C22.5452 217.085 12.8065 216.155 10.1655 216.704V216.706Z" fill="#061428"/>
    <path fill-rule="evenodd" clip-rule="evenodd" d="M83.224 223.984C80.8326 226.618 80.45 228.867 78.7961 233.278L72.4494 250.171C72.1912 250.858 70.5363 248.952 67.4868 245.761C64.4373 242.57 59.7885 237.693 56.6491 234.402L51.939 229.47C52.199 228.913 52.418 228.337 52.5943 227.748C52.6682 227.164 52.5768 226.57 52.3305 226.035C52.0841 225.5 51.6927 225.044 51.2006 224.721C50.1579 223.905 47.2615 223.583 45.1686 223.58C43.0756 223.577 42.143 223.969 42.0024 224.682C41.8618 225.396 39.6837 225.193 36.992 225.388C34.3002 225.583 31.9768 224.869 30.87 225.833C29.7633 226.797 31.3483 228.251 33.4747 228.807L40.7024 230.7C42.3142 231.123 46.8837 232.317 46.8837 232.317C46.8837 232.317 47.9187 235.55 48.6456 237.593L52.6507 248.837C54.0052 252.638 57.8094 260.656 59.7292 263.421C61.649 266.185 65.0342 270.625 70.9802 269.997C76.9261 269.37 82.8338 262.305 85.404 260.221C87.9743 258.137 94.2043 251.961 94.2043 251.961C94.2043 251.961 85.5953 221.352 83.2126 223.981L83.224 223.984Z" fill="#E88D95"/>
    <path fill-rule="evenodd" clip-rule="evenodd" d="M127.284 212.904C130.579 218.165 132.927 230.915 132.927 230.915L129.588 232.32C129.588 232.32 127.985 219.514 127.283 212.902L127.284 212.904Z" fill="#DA6771"/>
    <path fill-rule="evenodd" clip-rule="evenodd" d="M86.7575 232.853C87.7141 237.761 88.1091 257.837 88.1091 257.837L94.2119 251.969C94.2119 251.969 85.801 227.942 86.7575 232.853Z" fill="#DA6771"/>
    <path fill-rule="evenodd" clip-rule="evenodd" d="M83.224 223.984C85.4822 221.713 87.9481 219.659 90.5894 217.848C92.3329 216.809 94.1891 215.972 96.1221 215.354L106.467 211.537C106.467 211.537 110.102 209.573 112.494 208.349C114.885 207.126 117.888 206.819 119.873 206.303C121.756 205.982 123.67 205.881 125.576 206.003C126.982 210.922 127.988 215.946 128.583 221.027L130.565 243.29C130.519 244.766 130.254 246.226 129.78 247.624L98.5728 260.224C98.5728 260.224 97.0223 257.259 95.619 254.897C94.2157 252.535 92.2758 246.732 90.7875 243.846C89.2991 240.96 87.7504 235.068 86.3816 232.032C85.0127 228.997 83.9826 225.668 83.225 223.984H83.224Z" fill="#FBDC8E"/>
    <path fill-rule="evenodd" clip-rule="evenodd" d="M93.508 206.328C93.6304 206.226 93.4706 206.656 93.5137 206.811C93.5711 207.002 93.6706 207.194 93.7356 207.385C94.1067 208.5 94.5209 209.619 94.8414 210.749C95.1695 211.905 95.3579 213.102 95.7271 214.246C95.7692 214.377 95.862 215.288 96.1241 215.354C96.9464 215.665 97.79 215.916 98.6485 216.106C99.2207 216.168 99.798 216.168 100.37 216.106C101.47 216.048 102.537 215.711 103.47 215.127C104.403 214.542 105.172 213.73 105.704 212.766C106.005 212.386 106.262 211.972 106.469 211.534C106.182 210.432 105.781 209.364 105.274 208.345L102.72 201.539" fill="#E88D95"/>
    <path d="M103.914 183.358C104.047 183.08 104.278 182.861 104.563 182.743C106.971 181.338 107.614 185.306 106.174 185.9M104.802 178.947C105.256 179.362 105.854 179.586 106.469 179.569C106.911 179.578 107.341 179.422 107.674 179.131C108.007 178.84 108.22 178.436 108.27 177.997L104.802 178.947ZM94.783 181.589C94.8251 181.555 94.6462 181.504 94.6462 181.504C94.6462 181.504 94.9275 181.695 95.0595 181.804C95.4422 182.103 95.8749 182.332 96.3374 182.48C97.9779 182.972 100.471 182.594 100.471 180.376L94.783 181.589Z" stroke="#061428" stroke-width="1.65048" stroke-linecap="round" stroke-linejoin="round"/>
    <path fill-rule="evenodd" clip-rule="evenodd" d="M106.906 188.747C105.052 190.203 102.819 191.097 100.473 191.323C98.8214 191.389 97.1684 191.247 95.553 190.899C95.3336 192.174 95.4069 193.482 95.7673 194.725C96.3256 196.728 97.6458 198.433 99.4452 199.474C100.272 199.935 101.211 200.157 102.157 200.115C103.103 200.074 104.018 199.77 104.802 199.239C106.291 198.249 106.872 196.493 107.279 194.776C107.839 192.783 107.708 190.659 106.907 188.749L106.906 188.747Z" fill="#DA6771"/>
    <path fill-rule="evenodd" clip-rule="evenodd" d="M104.256 205.636C102.759 206.658 101.035 207.3 99.2339 207.506C100.896 208.207 101.784 208.927 103.279 209.211L105.862 209.704C105.862 209.704 104.755 206.901 104.252 205.636H104.256Z" fill="#DA6771"/>
    <path d="M127.985 162.636C128.399 161.7 129.051 160.888 129.876 160.281" stroke="#DA6771" stroke-width="1.48408" stroke-linecap="round" stroke-linejoin="round"/>
    <path d="M34.8245 417.74V417.13L33.3687 415.3L30.0324 411.184L26.4535 406.829C26.4535 406.829 23.0081 404.432 22.1225 404.017C18.8954 402.517 15.7169 401.37 11.9196 401.37C9.58422 401.37 0.855356 401.724 0.837158 403.2C0.837158 405.389 13.06 413.678 22.0254 417.704C25.9319 417.74 34.8245 417.74 34.8245 417.74V417.74Z" fill="#19A5A1"/>
    <path d="M32.974 417.74C20.5328 408.134 -4.85911 355.62 1.64962 336.164C15.5163 343.27 30.7297 367.77 37.9056 388.458C38.2855 389.804 38.5893 391.17 38.8155 392.551L41.7272 405.969L42.4551 417.74H32.974Z" fill="#32CFCB"/>
    <path d="M41.4667 417.74C37.2691 414.312 35.9285 404.163 35.8921 400.376C35.8254 393.307 36.9051 388.098 42.9165 380.322C48.9278 372.546 47.3082 359.64 55.3152 350.942C63.3222 342.245 68.5875 339.824 78.0624 339.824C87.5374 339.824 90.54 355.267 90.5158 359.152C90.4066 374.814 80.5858 377.028 74.6048 384.512C70.2556 389.94 69.9159 394.38 68.5996 396.918C61.5267 410.574 55.8005 415.733 51.5543 417.74" fill="#73E5E2"/>
    <path d="M43.7596 416.606C43.8809 389.873 71.8994 349.723 77.8865 343.703" stroke="white" stroke-width="0.416" stroke-linecap="round" stroke-linejoin="round"/>
    <path d="M45.2943 404.474C42.1946 401.077 39.374 391.447 39.7986 388.946" stroke="white" stroke-width="0.416" stroke-linecap="round" stroke-linejoin="round"/>
    <path d="M37.3539 415.453C32.9622 407.609 12.1257 369.453 4.33102 341.342" stroke="white" stroke-width="0.416" stroke-linecap="round" stroke-linejoin="round"/>
    <path d="M51.5543 417.74H64.5961L53.6774 458.635H24.4821L13.7394 417.74H51.5543Z" fill="#061428"/>
    <path d="M5.0773 404.035C11.4405 404.474 19.4475 404.767 25.1252 408.64" stroke="white" stroke-width="0.416" stroke-linecap="round" stroke-linejoin="round"/>
    <path d="M192.321 301.395L142.106 458.498" stroke="#061428" stroke-width="4.16" stroke-miterlimit="10" stroke-linecap="round"/>
    <path d="M192.321 301.395L242.522 458.498" stroke="#061428" stroke-width="4.16" stroke-miterlimit="10" stroke-linecap="round"/>
    <path d="M158.59 406.923L214.568 371.039" stroke="#061428" stroke-width="2.08" stroke-miterlimit="10" stroke-linecap="round"/>
    <path d="M192.321 321.15C241.679 321.15 281.691 312.305 281.691 301.395C281.691 290.485 241.679 281.641 192.321 281.641C142.963 281.641 102.951 290.485 102.951 301.395C102.951 312.305 142.963 321.15 192.321 321.15Z" fill="#E8EBF0"/>
    <path d="M169.848 371.039L225.812 406.923" stroke="#061428" stroke-width="2.08" stroke-miterlimit="10" stroke-linecap="round"/>
    <path d="M283.936 108.501C283.936 105.777 281.728 103.569 279.004 103.569C276.28 103.569 274.072 105.777 274.072 108.501V125.527C274.072 128.251 276.28 130.459 279.004 130.459C281.728 130.459 283.936 128.251 283.936 125.527V108.501Z" fill="#061428"/>
    <path d="M279.004 159.08C284.469 159.08 288.9 154.649 288.9 149.184C288.9 143.718 284.469 139.288 279.004 139.288C273.539 139.288 269.108 143.718 269.108 149.184C269.108 154.649 273.539 159.08 279.004 159.08Z" fill="#FBDC8E"/>
    <path d="M279.004 119.348C275.085 119.347 271.205 120.118 267.584 121.617C263.963 123.116 260.673 125.313 257.902 128.084C255.13 130.854 252.932 134.144 251.432 137.764C249.932 141.385 249.16 145.265 249.16 149.184H308.84C308.84 141.271 305.697 133.682 300.102 128.086C294.506 122.491 286.917 119.348 279.004 119.348V119.348Z" fill="#AB8DE5"/>
    <path d="M279.004 109.249V1" stroke="#061428" stroke-width="2.08" stroke-linecap="round" stroke-linejoin="round"/>
</svg>
