<svg fill="none" height="350" viewBox="0 0 204 350" width="204" xmlns="http://www.w3.org/2000/svg">
    <g clip-path="url(#clip0_752_1654)">
        <path
            d="M7.52844 194.261C9.02792 187.726 10.0723 181.048 12.1179 174.691C16.1995 161.996 24.6311 152.846 36.5885 146.905C42.893 143.763 49.1256 140.481 55.387 137.262C58.3668 140.203 59.8902 144.117 62.2472 147.48C63.3012 148.98 64.1252 150.642 65.2653 152.089C68.3697 156.046 71.0141 156.491 75.1149 153.674C77.6396 151.935 79.9439 149.899 82.3536 148.007C87.8916 143.657 90.33 144.29 93.4152 150.929C94.9338 157.387 94.1865 164.027 95.0201 170.533C95.4129 173.589 94.1721 175.17 91.0822 175.4C90.057 175.477 88.9982 175.366 87.9347 175.74C96.0548 175.486 96.0213 175.491 95.0536 167.677C94.5458 163.572 94.6799 159.438 94.9099 155.313C95.6333 151.811 97.5351 152.371 99.8969 153.751C105.239 156.879 105.674 156.443 107.16 150.398C108.118 146.431 107.198 141.842 110.633 138.589C125.484 144.634 137.939 153.124 142.218 169.776C143.909 176.401 145.231 183.123 146.678 189.81C147.128 191.889 147.454 193.997 147.832 196.091C142.275 196.651 136.694 197.049 131.429 199.19C130.552 199.55 129.642 199.066 128.885 198.548C127.089 198.146 127.788 199.588 127.874 200.177C131.587 225.505 134.869 250.896 138.466 276.238C140.225 287.511 141.901 298.798 143.77 310.056C144.594 315 141.566 317.448 138.021 319.407C127.802 325.036 116.669 325.529 105.445 324.337C89.5156 322.65 73.6394 320.466 57.6434 319.402C56.3404 318.923 55.8517 317.764 55.4637 316.624C52.9917 309.409 50.3521 302.252 48.6993 294.783C48.4597 289.034 45.9447 283.918 44.3446 278.552C41.039 267.462 36.4831 256.75 34.1501 245.358C36.028 234.521 37.4652 223.618 39.6545 212.839C39.8749 211.957 40.1336 211.081 40.3156 210.185C42.3948 200.383 41.9684 199.645 32.3392 196.479C25.6611 194.28 18.7817 194.644 11.9119 194.831C10.4172 194.807 8.85066 195.497 7.52844 194.261Z"
            fill="#A4CD9F" />
        <path
            d="M49.0969 24.3988C44.1146 20.2261 39.712 15.5984 37.7143 9.21721C36.052 3.91397 37.7143 1.27911 43.0894 0.503022C64.6473 -2.60611 84.4998 8.9154 92.6008 29.2134C94.838 34.8184 94.7662 34.6843 100.189 31.8243C111.236 25.9988 122.705 25.5964 134.375 29.7739C136.991 30.7081 139.784 32.0734 140.038 35.1777C140.301 38.4593 137.274 39.7097 134.926 41.0415C131.985 42.7038 128.698 43.5087 124.248 44.2033C128.708 46.0956 132.287 47.5568 135.812 49.1233C141.997 51.8683 147.928 55.0445 152.58 60.0987C153.75 61.2988 154.727 62.6724 155.478 64.1707C158.755 71.2657 155.042 76.4204 147.19 75.7449C145.216 75.5725 143.267 75.1461 141.312 74.8347C140.277 74.5329 138.993 73.7664 139.262 75.9126C145.413 82.6195 149.94 90.0115 149.499 99.5784C149.341 102.999 149.341 106.63 145.782 108.317C142.428 109.893 139.65 107.641 136.919 105.969C136.162 105.49 135.444 104.987 134.275 104.201C133.058 110.137 135.07 117.515 127.429 119.771C123.366 120.969 120.66 117.821 118.082 114.219C115.778 119.488 113.234 124.418 106.93 124.279C104.247 124.222 101.507 123.105 100.496 119.991C100.228 118.712 101.109 117.975 101.933 117.328C110.733 110.29 111.203 100.652 110.173 90.6486C109.836 87.094 109.169 83.5785 108.18 80.1475C108.755 84.2387 109.267 87.2521 109.67 90.275C109.914 92.0906 110.369 93.9159 108.956 95.5016C106.997 96.6801 104.807 96.3687 102.695 96.3735C89.4102 96.4166 76.121 96.3735 61.9742 96.407C65.4186 97.116 67.4163 98.3616 67.378 101.38C67.3493 103.478 66.0319 104.292 64.9108 104.283C66.4726 104.23 68.1637 105.471 68.9446 107.584C71.8812 115.503 77.8791 119.651 85.7837 121.563C87.6712 122.578 89.5252 121.496 91.3935 121.476C92.9457 121.476 94.5889 120.518 96.0165 121.888L96.074 125.984C94.4069 130.344 90.9576 133.429 88.0353 136.859C86.349 138.843 84.3609 137.765 82.8853 136.232C79.6038 132.821 75.6994 130.095 72.4178 126.722C69.9506 124.188 68.2212 124.614 66.0462 127.024C64.6953 128.524 64.1635 131.403 61.1071 130.713C57.241 127.886 55.3152 123.833 54.1702 118.66C52.23 121.079 50.9126 123.091 49.2358 124.734C44.4835 129.376 38.9024 128.198 36.4975 122.08C34.907 118.089 34.7968 113.778 34.1453 109.332C31.0841 110.29 28.4396 112.489 24.9952 111.555C19.3422 110.017 17.1433 104.848 19.0835 97.3028C20.3003 92.5649 22.5519 88.2725 25.6994 83.2806C19.7542 84.8903 14.9923 86.979 9.73694 86.9119C2.30664 86.8161 0.0550387 84.1382 2.82403 77.1486C6.95357 66.7337 13.512 58.0435 23.0933 51.8731C23.5053 51.4324 23.8885 50.9485 24.5305 50.8288C24.2718 50.3833 23.9029 50.8 23.5723 50.7186C21.9387 50.3066 20.1949 50.9533 18.5949 50.2108C14.221 49.9473 10.398 48.5101 8.71653 44.1746C7.30328 40.5337 9.85192 35.6855 14.2545 32.6387C23.0693 26.5354 33.2303 25.8072 43.4775 25.4048C47.7651 26.109 47.7651 26.109 49.0969 24.3988Z"
            fill="#F48096" />
        <path
            d="M40.7708 212.738C38.8832 223.693 36.9973 234.651 35.113 245.612C32.4207 246.627 34.1549 248.433 34.5285 249.765C38.0832 261.718 42.3277 273.441 46.189 285.293C47.2238 288.469 48.2873 291.636 49.2358 294.84C52.0272 303.007 54.8217 311.173 57.6195 319.34C58.7884 322.77 59.9557 326.202 61.1214 329.635C61.3035 330.833 60.6424 331.733 59.8471 332.404C54.9655 336.49 50.1413 340.653 44.9961 344.381C44.3781 344.826 43.6691 345.123 42.8787 344.735C40.2151 337.022 35.3861 330.454 31.4865 323.378C24.7317 311.042 17.4403 298.994 10.7478 286.625C-1.43484 264.108 -2.18698 240.265 3.36539 215.828C4.0744 212.71 4.51513 209.533 5.08043 206.381C5.94754 205.38 7.12126 205.092 8.36682 205.04C18.3984 204.594 28.1378 205.936 37.4556 209.83C38.8928 210.41 40.2103 211.148 40.7708 212.738Z"
            fill="#F48096" />
        <path
            d="M150.213 206.875L152.034 214.061C156.091 207.909 159.306 202.084 163.44 197.001C168.518 190.773 168.992 184.579 166.449 177.187C164.437 171.323 163.665 165.023 162.511 158.887C162.137 156.87 161.462 154.321 164.135 153.296C166.808 152.271 168.849 153.842 170.286 156.041C170.914 157.09 171.451 158.191 171.891 159.332C174.315 165.038 174.315 165.038 178.986 160.602C185.942 154.019 189.003 153.991 195.993 160.544C198.436 162.834 201.152 164.904 202.546 168.113C206.412 177.014 202.029 186.596 192.352 189.647C189.549 190.538 188.184 191.885 187.422 194.706C182.598 212.532 177.596 230.31 168.791 246.723C166.909 250.235 164.849 253.65 162.151 256.578C155.272 264.056 151.133 264.875 141.825 260.836C140.244 260.151 138.404 258.513 138.198 262.005C136.363 262.034 136.43 260.506 136.282 259.428C134.505 244.131 131.908 228.95 130.054 213.663C129.944 212.744 130.1 211.813 130.504 210.98C136.363 206.127 142.912 204.719 150.213 206.875Z"
            fill="#F48096" />
        <path
            d="M61.0975 130.718C63.1287 128.667 65.2797 126.713 67.1624 124.533C68.7577 122.679 69.8931 122.794 71.6033 124.451C75.2251 127.968 79.1917 131.13 82.756 134.694C85.1848 137.128 86.7753 137.755 88.9838 134.373C90.9671 131.336 93.6739 128.768 96.0596 125.989C101.028 130.037 106.599 133.391 110.628 138.526C109.756 143.101 108.76 147.662 108.046 152.261C107.222 157.531 104.913 158.489 100.314 155.749C99.2741 155.126 97.9902 150.503 95.8823 155.049C93.4008 154.431 94.2152 151.408 92.3948 150.307C88.0832 144.759 88.0832 144.788 82.9476 149.023C80.3606 151.15 77.6779 153.152 74.9999 155.174C71.6465 157.694 68.2451 157.612 65.7156 154.345C61.6196 149.075 57.7248 143.585 55.3822 137.219C57.2889 135.05 59.194 132.883 61.0975 130.718Z"
            fill="#7FAA77" />
        <path
            d="M40.7707 212.738C29.5127 207.047 17.4834 205.667 5.0804 206.381C5.0277 202.161 6.03853 198.151 7.52843 194.237C18.7385 192.517 29.6468 192.642 39.9803 198.362C42.5624 199.799 43.4535 201.011 42.7349 203.904C42.0163 206.798 41.9013 209.893 40.7707 212.738Z"
            fill="#7FAA77" />
        <path
            d="M150.213 206.875C143.564 206.851 137.072 207.531 131.237 211.114C128.267 207.076 127.673 202.692 129.321 197.983C131.999 199.166 133.925 196.972 136.157 196.33C140.086 195.205 143.904 194.678 147.842 196.029C149.255 199.53 149.82 203.171 150.213 206.875Z"
            fill="#7FAA77" />
        <path
            d="M129.312 197.983L131.228 211.114C133.546 228.083 135.867 245.048 138.189 262.01C138.639 265.737 139.041 269.479 139.568 273.201C139.746 274.471 139.995 275.596 138.457 276.176C136.938 275.817 136.818 274.595 136.646 273.35C133.254 248.41 129.874 223.453 126.504 198.481C126.365 197.447 125.005 195.564 127.328 195.157C129.652 194.749 128.804 196.924 129.312 197.983Z"
            fill="#090807" />
        <path
            d="M96.0069 121.893C92.5864 121.745 89.3 124.739 85.7885 122.406C85.1417 120.188 86.9718 119.924 88.2892 119.383C89.8318 118.746 91.5421 118.65 93.1517 118.204C102.23 115.689 107.188 109.557 107.739 100.158C107.835 98.5245 107.524 96.8046 108.774 95.401C108.889 90.481 107.663 85.7287 106.963 80.9141C106.819 79.9559 106.134 78.7391 107.787 78.3415C109.33 77.9726 109.588 79.0409 109.756 80.1667C110.978 88.3108 112.631 96.3352 111.059 104.676C109.78 111.478 105.876 116.173 100.52 120.006L96.0069 121.893Z"
            fill="#0A0808" />
        <path
            d="M42.8643 344.749C49.0921 339.887 55.4206 335.13 61.1214 329.635C62.4437 329.606 63.6222 326.923 64.954 329.156C66.1947 331.216 63.7515 331.599 62.7934 332.394C56.4601 337.667 50.0502 342.848 43.5637 347.935C42.6056 348.697 41.7624 351.222 40.033 349.272C38.0161 347.001 41.2259 346.915 41.9253 345.751C42.2035 345.386 42.5181 345.05 42.8643 344.749Z"
            fill="#0F0D0D" />
        <path
            d="M18.6188 50.2108H25.9964L26.164 50.7665L23.098 51.8731C22.0249 50.182 19.7446 51.7294 18.6188 50.2108Z"
            fill="#F8ABB6" />
        <path
            d="M49.0969 24.3988C50.055 24.9449 51.3341 25.836 49.2214 26.133C47.377 26.4013 45.2452 26.7845 43.4727 25.4048C45.3218 24.8778 47.4776 26.109 49.0969 24.3988Z"
            fill="#FBD2D6" />
        <path
            d="M139.267 75.9318C138.615 75.5725 137.604 74.8779 138.15 74.3748C139.108 73.4934 140.364 73.9245 141.312 74.8539C140.503 74.9737 139.693 75.0695 139.267 75.9318Z"
            fill="#FDEAEB" />
        <path
            d="M49.2358 294.864C47.6789 294.692 47.5208 293.48 47.1327 292.282C42.2462 277.225 37.2927 262.187 32.4015 247.13C32.0805 246.139 30.6816 244.946 32.4254 244.012C34.1692 243.077 34.3417 244.888 35.113 245.641C39.9324 260.621 44.7757 275.596 49.5376 290.601C49.9688 291.937 51.6359 293.595 49.2358 294.864Z"
            fill="#0A0807" />
        <path
            d="M111.557 315.512C100.501 315.11 88.7682 312.686 76.8778 311.799C75.7712 311.718 74.564 311.565 74.837 310.046C75.1245 308.432 76.5233 309.04 77.4479 309.141C86.7226 310.099 96.0021 311.057 105.258 312.211C111.943 313.073 118.726 312.792 125.316 311.378C126.576 311.105 128.301 310.084 128.828 311.996C129.403 314.084 127.208 313.802 126.092 314.08C121.618 315.205 117.043 315.464 111.557 315.512Z"
            fill="#080907" />
        <path
            d="M92.3947 150.307C95.9015 150.172 94.8811 153.349 95.8823 155.049C96.1746 160.832 96.2225 166.643 96.8405 172.391C97.2285 175.956 95.9877 177.024 92.6726 176.923C90.7084 176.866 88.7299 177.302 86.7514 177.489C85.7357 177.58 84.5381 178.049 84.174 176.487C83.786 174.835 85.0746 175.007 86.0615 174.657C88.591 173.757 92.3804 175.505 93.602 172.981C94.6463 170.835 93.5206 167.639 93.3433 164.904C93.0303 160.036 92.7141 155.171 92.3947 150.307Z"
            fill="#0A0B09" />
        <path
            d="M108.774 95.401C109.732 110.084 104.209 117.194 89.6402 120.274C88.3084 120.557 85.9705 119.795 85.8077 122.406C77.9318 121.419 71.8717 117.701 68.9206 110.194C67.5553 106.721 65.9121 104.834 62.0077 105.461C60.8963 105.639 59.5357 105.806 58.5249 104.245C59.9621 102.4 62.0844 103.377 63.8473 103.133C65.0019 102.975 66.5157 103.368 66.4486 101.461C66.3912 99.8802 66.1037 98.352 64.0533 98.1987C63.8931 98.2023 63.7329 98.1927 63.5742 98.17C61.9358 97.7867 58.7836 98.9604 58.9273 96.9771C59.1285 94.1554 62.3766 95.4393 64.2689 95.4249C79.0912 95.3243 93.9326 95.3866 108.774 95.401Z"
            fill="#73C4DC" />
        <path
            d="M88.4904 85.6855C88.3323 87.1515 88.4904 89.039 86.9478 89.2594C85.2423 89.5229 85.0938 87.6737 84.792 86.385C84.7585 86.2365 84.7154 86.088 84.6866 85.9395C84.289 83.7405 83.2494 81.5081 84.883 79.3906C85.3333 78.8014 86.0232 78.9739 86.4783 79.4242C88.2748 81.1728 87.9442 83.6256 88.4904 85.6855Z"
            fill="#1C1012" />
        <path
            d="M95.9542 82.2171C96.2225 80.9907 95.3171 79.0361 97.2237 78.8157C98.8382 78.6337 99.2933 80.4733 99.552 81.7572C100.002 83.9705 100.572 86.2796 99.3412 88.4258C99.1783 88.7132 98.019 88.8617 97.7747 88.6174C95.9926 86.8545 96.2273 84.4543 95.9542 82.2171Z"
            fill="#110A0B" />
        <path
            d="M187.331 183.626C184.543 183.654 181.937 182.792 180.548 180.43C177.999 176.095 175.867 171.515 173.587 167.016C173.232 166.317 173.079 165.517 173.946 165.033C174.947 164.477 175.661 164.841 176.15 165.833C177.64 168.846 179.153 171.85 180.648 174.859C181.994 177.57 182.895 180.722 186.876 180.67C191.025 180.622 193.53 178.001 195.82 175.046C196.098 174.678 196.288 174.252 196.376 173.8C196.63 172.502 197.094 171.093 198.656 171.769C200.06 172.382 199.389 173.939 199.035 175.046C197.789 178.931 191.37 183.568 187.331 183.626Z"
            fill="#0D0809" />
    </g>
    <defs>
        <clipPath id="clip0_752_1654">
            <rect fill="white" height="350" transform="translate(0.0502319)" width="203.9" />
        </clipPath>
    </defs>
</svg>
