<svg fill="none" height="24" viewBox="0 0 24 24" width="24" xmlns="http://www.w3.org/2000/svg">
    <g opacity="0.5">
        <path
            d="M11.579 12.056C14.2178 12.056 16.357 9.91682 16.357 7.278C16.357 4.63918 14.2178 2.5 11.579 2.5C8.94021 2.5 6.80103 4.63918 6.80103 7.278C6.80103 9.91682 8.94021 12.056 11.579 12.056Z"
            stroke="#757C86" stroke-linecap="round" stroke-linejoin="round" stroke-width="1.5" />
        <path clip-rule="evenodd"
            d="M4.00001 18.7009C3.99886 18.3651 4.07409 18.0334 4.22001 17.7309C4.67701 16.8159 5.96801 16.3309 7.03901 16.1109C7.81128 15.946 8.59422 15.8357 9.38201 15.7809C10.8409 15.6528 12.3082 15.6528 13.767 15.7809C14.554 15.8369 15.337 15.9469 16.11 16.1109C17.18 16.3309 18.471 16.7699 18.93 17.7309C19.0749 18.0355 19.1501 18.3686 19.1501 18.7059C19.1501 19.0432 19.0749 19.3763 18.93 19.6809C18.471 20.6409 17.18 21.0809 16.11 21.2909C15.338 21.4629 14.555 21.5769 13.767 21.6309C12.579 21.7309 11.387 21.7489 10.197 21.6849C9.92201 21.6849 9.65701 21.6849 9.38201 21.6299C8.59653 21.577 7.81625 21.464 7.04801 21.2919C5.96801 21.0819 4.68701 20.6419 4.22001 19.6809C4.0746 19.3744 3.99944 19.0392 4.00001 18.6999V18.7009Z"
            fill-rule="evenodd" stroke="#757C86" stroke-linecap="round" stroke-linejoin="round"
            stroke-width="1.5" />
    </g>
</svg>
