<svg width="300" height="300" viewBox="-0.002133648144081235 0 89.49066162109375 93.849609375" fill="none" xmlns="http://www.w3.org/2000/svg">
    <path
        d="M30.94 0h19.17a39.62 39.62 0 0 1 37.13 27.33c4.5 14 2.23 26.88-6.67 38.41A38.37 38.37 0 0 1 57.49 80a54.32 54.32 0 0 1-11.49.78 58.25 58.25 0 0 1-7.71-.13c-6.29-.84-9.9-7.29-7.75-13.53a9.81 9.81 0 0 1 9-6.55c4 0 8.06.15 12.06-.14 14.25-1 22.71-18 15.17-30.28-4-6.59-9.87-9.93-17.56-9.92H10.15A10 10 0 0 1 .06 11 10.06 10.06 0 0 1 8 .17a9.91 9.91 0 0 1 2-.15z"
        fill="#d7000f" />
    <path
        d="M0 65.1V47.81c0-9.24 5.34-16.31 14.24-18.76a17 17 0 0 1 4.38-.58q14-.07 28.09 0a9.38 9.38 0 0 1 .54 18.75c-6.17 0-12.35-.13-18.53-.27a9.43 9.43 0 0 0-9.91 9.57v27.75a9.07 9.07 0 0 1-5.41 8.65A9.34 9.34 0 0 1 0 84.31V65.1z"
        fill="#0040DD" />
</svg>