<svg fill="none" height="40" viewBox="0 0 40 40" width="40" xmlns="http://www.w3.org/2000/svg">
    <rect fill="#FEE4E2" height="40" rx="20" width="40" />
    <path
        d="M18.1756 20.9971H17.016C16.0536 20.9971 15.2767 20.2202 15.2767 19.2577C15.2767 18.2953 16.0536 17.5183 17.016 17.5183H18.1756V16.3587C18.1756 15.3963 18.9525 14.6194 19.915 14.6194C20.8775 14.6194 21.6544 15.3963 21.6544 16.3587V17.5183H22.814C23.7764 17.5183 24.5533 18.2953 24.5533 19.2577C24.5533 20.2202 23.7764 20.9971 22.814 20.9971H21.6544V22.1567C21.6544 23.1191 20.8775 23.896 19.915 23.896C18.9525 23.896 18.1756 23.1191 18.1756 22.1567V20.9971ZM19.1033 8.54316L12.1458 11.1522C11.2413 11.5001 10.6383 12.3582 10.6383 13.3322V18.7823C10.6383 24.6382 14.5925 30.0998 19.915 31.4333C25.2375 30.0998 29.1917 24.6382 29.1917 18.7823V13.3322C29.1917 12.3698 28.5887 11.5001 27.6842 11.1638L20.7267 8.55475C20.2049 8.34603 19.6251 8.34603 19.1033 8.54316Z"
        fill="#F04438" />
</svg>
